<?xml version="1.0" encoding="UTF-8" standalone="no"?>
<!DOCTYPE svg PUBLIC "-//W3C//DTD SVG 1.0//EN" "http://www.w3.org/TR/2001/PR-SVG-20010719/DTD/svg10.dtd">
<svg width="21cm" height="22cm" viewBox="99 39 420 434" xmlns="http://www.w3.org/2000/svg" xmlns:xlink="http://www.w3.org/1999/xlink">
  <g>
    <rect style="fill: #ffffff" x="240" y="40" width="120" height="100"/>
    <rect style="fill: none; fill-opacity:0; stroke-width: 2; stroke: #000000" x="240" y="40" width="120" height="100"/>
    <text style="fill: #000000;text-anchor:middle;font-size:12.8;font-family:sanserif;font-style:normal;font-weight:normal" x="300" y="85.9">
      <tspan x="300" y="85.9">Server</tspan>
      <tspan x="300" y="101.9">example.com</tspan>
    </text>
  </g>
  <g>
    <line style="fill: none; fill-opacity:0; stroke-width: 2; stroke: #000000" x1="225.63" y1="370.711" x2="263.473" y2="309.287"/>
    <polygon style="fill: #000000" points="221.696,377.097 222.684,365.96 225.63,370.711 231.198,371.206 "/>
    <polygon style="fill: none; fill-opacity:0; stroke-width: 2; stroke: #000000" points="221.696,377.097 222.684,365.96 225.63,370.711 231.198,371.206 "/>
    <polygon style="fill: #000000" points="267.407,302.902 266.419,314.039 263.473,309.287 257.905,308.793 "/>
    <polygon style="fill: none; fill-opacity:0; stroke-width: 2; stroke: #000000" points="267.407,302.902 266.419,314.039 263.473,309.287 257.905,308.793 "/>
  </g>
  <g>
    <rect style="fill: #ffffff" x="100" y="380" width="183.75" height="91"/>
    <rect style="fill: none; fill-opacity:0; stroke-width: 2; stroke: #000000" x="100" y="380" width="183.75" height="91"/>
    <text style="fill: #000000;text-anchor:middle;font-size:12.8;font-family:sanserif;font-style:normal;font-weight:normal" x="191.875" y="413.4">
      <tspan x="191.875" y="413.4">Client A</tspan>
      <tspan x="191.875" y="429.4">foo@example.com/Home</tspan>
      <tspan x="191.875" y="445.4">Priority 5</tspan>
    </text>
  </g>
  <g>
    <rect style="fill: #ffffff" x="320" y="380" width="197.8" height="91"/>
    <rect style="fill: none; fill-opacity:0; stroke-width: 2; stroke: #000000" x="320" y="380" width="197.8" height="91"/>
    <text style="fill: #000000;text-anchor:middle;font-size:12.8;font-family:sanserif;font-style:normal;font-weight:normal" x="418.9" y="413.4">
      <tspan x="418.9" y="413.4">Client B</tspan>
      <tspan x="418.9" y="429.4">foo@example.com/Work</tspan>
      <tspan x="418.9" y="445.4">Priority 7</tspan>
    </text>
  </g>
  <g>
    <line style="fill: none; fill-opacity:0; stroke-width: 2; stroke: #000000" x1="381.936" y1="370.94" x2="340.012" y2="309.059"/>
    <polygon style="fill: #000000" points="386.143,377.149 376.394,371.675 381.936,370.94 384.673,366.066 "/>
    <polygon style="fill: none; fill-opacity:0; stroke-width: 2; stroke: #000000" points="386.143,377.149 376.394,371.675 381.936,370.94 384.673,366.066 "/>
    <polygon style="fill: #000000" points="335.805,302.849 345.553,308.324 340.012,309.059 337.275,313.933 "/>
    <polygon style="fill: none; fill-opacity:0; stroke-width: 2; stroke: #000000" points="335.805,302.849 345.553,308.324 340.012,309.059 337.275,313.933 "/>
  </g>
  <g>
    <rect style="fill: #ffffff" x="220" y="200" width="160" height="100"/>
    <rect style="fill: none; fill-opacity:0; stroke-width: 2; stroke: #000000" x="220" y="200" width="160" height="100"/>
    <text style="fill: #000000;text-anchor:middle;font-size:12.8;font-family:sanserif;font-style:normal;font-weight:normal" x="300" y="245.9">
      <tspan x="300" y="245.9">Proxy-Server</tspan>
      <tspan x="300" y="261.9">proxy.example.com</tspan>
    </text>
  </g>
  <g>
    <line style="fill: none; fill-opacity:0; stroke-width: 2; stroke: #000000" x1="300" y1="189.287" x2="300" y2="150.713"/>
    <polygon style="fill: #000000" points="300,196.787 295,186.787 300,189.287 305,186.787 "/>
    <polygon style="fill: none; fill-opacity:0; stroke-width: 2; stroke: #000000" points="300,196.787 295,186.787 300,189.287 305,186.787 "/>
    <polygon style="fill: #000000" points="300,143.213 305,153.213 300,150.713 295,153.213 "/>
    <polygon style="fill: none; fill-opacity:0; stroke-width: 2; stroke: #000000" points="300,143.213 305,153.213 300,150.713 295,153.213 "/>
  </g>
</svg>
