<?xml version="1.0" encoding="UTF-8" standalone="no"?>
<!DOCTYPE svg PUBLIC "-//W3C//DTD SVG 1.0//EN" "http://www.w3.org/TR/2001/PR-SVG-20010719/DTD/svg10.dtd">
<svg width="27cm" height="7cm" viewBox="19 59 540 132" xmlns="http://www.w3.org/2000/svg" xmlns:xlink="http://www.w3.org/1999/xlink">
  <g>
    <rect style="fill: #ffffff" x="260" y="60" width="73.25" height="40.4"/>
    <rect style="fill: none; fill-opacity:0; stroke-width: 1.2; stroke: #000000" x="260" y="60" width="73.25" height="40.4"/>
    <text style="fill: #000000;text-anchor:middle;font-size:7.68;font-family:sanserif;font-style:normal;font-weight:normal" x="296.625" y="77.75">
      <tspan x="296.625" y="77.75">Server</tspan>
      <tspan x="296.625" y="87.35">example.com</tspan>
    </text>
  </g>
  <g>
    <line style="fill: none; fill-opacity:0; stroke-width: 1.2; stroke: #000000" x1="339.158" y1="139.401" x2="316.725" y2="108.177"/>
    <polygon style="fill: #000000" points="312.349,102.086 322.244,107.29 316.725,108.177 314.123,113.125 "/>
    <polygon style="fill: none; fill-opacity:0; stroke-width: 1.2; stroke: #000000" points="312.349,102.086 322.244,107.29 316.725,108.177 314.123,113.125 "/>
  </g>
  <g>
    <rect style="fill: #ffffff" x="160" y="140" width="118.4" height="50"/>
    <rect style="fill: none; fill-opacity:0; stroke-width: 1.2; stroke: #000000" x="160" y="140" width="118.4" height="50"/>
    <text style="fill: #000000;text-anchor:middle;font-size:7.68;font-family:sanserif;font-style:normal;font-weight:normal" x="219.2" y="157.75">
      <tspan x="219.2" y="157.75">Client A</tspan>
      <tspan x="219.2" y="167.35">foo@example.com/Home</tspan>
      <tspan x="219.2" y="176.95">Priority 5</tspan>
    </text>
  </g>
  <g>
    <rect style="fill: #ffffff" x="300" y="140" width="115.1" height="50"/>
    <rect style="fill: none; fill-opacity:0; stroke-width: 1.2; stroke: #000000" x="300" y="140" width="115.1" height="50"/>
    <text style="fill: #000000;text-anchor:middle;font-size:7.68;font-family:sanserif;font-style:normal;font-weight:normal" x="357.55" y="157.75">
      <tspan x="357.55" y="157.75">Client B</tspan>
      <tspan x="357.55" y="167.35">foo@example.com/Work</tspan>
      <tspan x="357.55" y="176.95">Priority 7</tspan>
    </text>
  </g>
  <g>
    <line style="fill: none; fill-opacity:0; stroke-width: 1.2; stroke: #000000" x1="333.999" y1="132.22" x2="316.725" y2="108.177"/>
    <polygon style="fill: #000000" points="338.375,138.311 328.48,133.107 333.999,132.22 336.601,127.272 "/>
    <polygon style="fill: none; fill-opacity:0; stroke-width: 1.2; stroke: #000000" points="338.375,138.311 328.48,133.107 333.999,132.22 336.601,127.272 "/>
    <polygon style="fill: #000000" points="312.349,102.086 322.244,107.29 316.725,108.177 314.123,113.125 "/>
    <polygon style="fill: none; fill-opacity:0; stroke-width: 1.2; stroke: #000000" points="312.349,102.086 322.244,107.29 316.725,108.177 314.123,113.125 "/>
  </g>
  <g>
    <rect style="fill: #ffffff" x="40" y="60" width="73.25" height="40.4"/>
    <rect style="fill: none; fill-opacity:0; stroke-width: 1.2; stroke: #000000" x="40" y="60" width="73.25" height="40.4"/>
    <text style="fill: #000000;text-anchor:middle;font-size:7.68;font-family:sanserif;font-style:normal;font-weight:normal" x="76.625" y="77.75">
      <tspan x="76.625" y="77.75">Server</tspan>
      <tspan x="76.625" y="87.35">example.com</tspan>
    </text>
  </g>
  <g>
    <rect style="fill: #ffffff" x="20" y="140" width="118.4" height="50"/>
    <rect style="fill: none; fill-opacity:0; stroke-width: 1.2; stroke: #000000" x="20" y="140" width="118.4" height="50"/>
    <text style="fill: #000000;text-anchor:middle;font-size:7.68;font-family:sanserif;font-style:normal;font-weight:normal" x="79.2" y="157.75">
      <tspan x="79.2" y="157.75">Client A</tspan>
      <tspan x="79.2" y="167.35">foo@example.com/Home</tspan>
      <tspan x="79.2" y="176.95">Priority 5</tspan>
    </text>
  </g>
  <g>
    <line style="fill: none; fill-opacity:0; stroke-width: 1.2; stroke: #000000" x1="78.1543" y1="130.563" x2="77.5248" y2="109.834"/>
    <polygon style="fill: #000000" points="78.3819,138.06 73.0807,128.216 78.1543,130.563 83.0761,127.912 "/>
    <polygon style="fill: none; fill-opacity:0; stroke-width: 1.2; stroke: #000000" points="78.3819,138.06 73.0807,128.216 78.1543,130.563 83.0761,127.912 "/>
    <polygon style="fill: #000000" points="77.2972,102.337 82.5984,112.181 77.5248,109.834 72.603,112.484 "/>
    <polygon style="fill: none; fill-opacity:0; stroke-width: 1.2; stroke: #000000" points="77.2972,102.337 82.5984,112.181 77.5248,109.834 72.603,112.484 "/>
  </g>
  <g>
    <line style="fill: none; fill-opacity:0; stroke-width: 1.2; stroke: #000000" x1="120" y1="120" x2="183.158" y2="120"/>
    <polygon style="fill: #000000" points="190.658,120 180.658,125 183.158,120 180.658,115 "/>
    <polygon style="fill: none; fill-opacity:0; stroke-width: 1.2; stroke: #000000" points="190.658,120 180.658,125 183.158,120 180.658,115 "/>
  </g>
  <g>
    <rect style="fill: #ffffff" x="460" y="60" width="73.25" height="40.4"/>
    <rect style="fill: none; fill-opacity:0; stroke-width: 1.2; stroke: #000000" x="460" y="60" width="73.25" height="40.4"/>
    <text style="fill: #000000;text-anchor:middle;font-size:7.68;font-family:sanserif;font-style:normal;font-weight:normal" x="496.625" y="77.75">
      <tspan x="496.625" y="77.75">Server</tspan>
      <tspan x="496.625" y="87.35">example.com</tspan>
    </text>
  </g>
  <g>
    <rect style="fill: #ffffff" x="440" y="140" width="118.4" height="50"/>
    <rect style="fill: none; fill-opacity:0; stroke-width: 1.2; stroke: #000000" x="440" y="140" width="118.4" height="50"/>
    <text style="fill: #000000;text-anchor:middle;font-size:7.68;font-family:sanserif;font-style:normal;font-weight:normal" x="499.2" y="157.75">
      <tspan x="499.2" y="157.75">Client A</tspan>
      <tspan x="499.2" y="167.35">foo@example.com/Home</tspan>
      <tspan x="499.2" y="176.95">Priority 5</tspan>
    </text>
  </g>
  <g>
    <line style="fill: none; fill-opacity:0; stroke-width: 1.2; stroke: #000000" x1="498.154" y1="130.563" x2="497.525" y2="109.834"/>
    <polygon style="fill: #000000" points="498.382,138.06 493.081,128.216 498.154,130.563 503.076,127.912 "/>
    <polygon style="fill: none; fill-opacity:0; stroke-width: 1.2; stroke: #000000" points="498.382,138.06 493.081,128.216 498.154,130.563 503.076,127.912 "/>
    <polygon style="fill: #000000" points="497.297,102.337 502.598,112.181 497.525,109.834 492.603,112.484 "/>
    <polygon style="fill: none; fill-opacity:0; stroke-width: 1.2; stroke: #000000" points="497.297,102.337 502.598,112.181 497.525,109.834 492.603,112.484 "/>
  </g>
  <g>
    <line style="fill: none; fill-opacity:0; stroke-width: 1.2; stroke: #000000" x1="360" y1="120" x2="423.158" y2="120"/>
    <polygon style="fill: #000000" points="430.658,120 420.658,125 423.158,120 420.658,115 "/>
    <polygon style="fill: none; fill-opacity:0; stroke-width: 1.2; stroke: #000000" points="430.658,120 420.658,125 423.158,120 420.658,115 "/>
  </g>
  <text style="fill: #000000;text-anchor:start;font-size:7.68;font-family:sanserif;font-style:normal;font-weight:normal" x="504" y="36">
    <tspan x="504" y="36"></tspan>
  </text>
  <g>
    <line style="fill: none; fill-opacity:0; stroke-width: 1; stroke: #000000" x1="248.384" y1="133.036" x2="271.827" y2="107.361"/>
    <polygon style="fill: #000000" points="243.327,138.575 246.377,127.819 248.384,133.036 253.762,134.561 "/>
    <polygon style="fill: none; fill-opacity:0; stroke-width: 1; stroke: #000000" points="243.327,138.575 246.377,127.819 248.384,133.036 253.762,134.561 "/>
    <polygon style="fill: #000000" points="276.884,101.822 273.833,112.578 271.827,107.361 266.448,105.836 "/>
    <polygon style="fill: none; fill-opacity:0; stroke-width: 1; stroke: #000000" points="276.884,101.822 273.833,112.578 271.827,107.361 266.448,105.836 "/>
  </g>
</svg>
